<?xml version="1.0" encoding="UTF-8" standalone="no"?>
<!-- Created with Inkscape (http://www.inkscape.org/) -->

<svg
   xmlns:dc="http://purl.org/dc/elements/1.1/"
   xmlns:cc="http://creativecommons.org/ns#"
   xmlns:rdf="http://www.w3.org/1999/02/22-rdf-syntax-ns#"
   xmlns:svg="http://www.w3.org/2000/svg"
   xmlns="http://www.w3.org/2000/svg"
   xmlns:sodipodi="http://sodipodi.sourceforge.net/DTD/sodipodi-0.dtd"
   xmlns:inkscape="http://www.inkscape.org/namespaces/inkscape"
   width="512"
   height="512"
   viewBox="0 0 512.00001 512.00001"
   id="svg2"
   version="1.1"
   inkscape:version="0.91 r13725"
   sodipodi:docname="icon-draft-tuner-solid.svg"
   inkscape:export-filename="/home/matt/asp/GuitarTuner/promo/images/icon-45deg-solid-tuner.png"
   inkscape:export-xdpi="90"
   inkscape:export-ydpi="90">
  <defs
     id="defs4">
    <inkscape:path-effect
       effect="clone_original"
       id="path-effect4152"
       is_visible="true"
       linkedpath="" />
    <clipPath
       clipPathUnits="userSpaceOnUse"
       id="clipPath4923">
      <path
         style="fill:none;fill-opacity:1;stroke:#009783;stroke-width:8;stroke-linecap:round;stroke-linejoin:round;stroke-miterlimit:4;stroke-dasharray:none;stroke-opacity:1"
         d="m 368,224 c 0,-44.18278 -50.14411,-80 -112,-80 -61.85589,0 -112,35.81722 -112,80 0,44.18278 33.1936,51.30393 32,80 -1.48685,35.74618 -48,42.98066 -48,96 0,53.01934 57.30755,96 128,96 70.69245,0 128,-42.98066 128,-96 0,-53.01934 -46.51315,-60.25382 -48,-96 -1.1936,-28.69607 32,-35.81722 32,-80 z"
         id="path4925"
         inkscape:connector-curvature="0"
         sodipodi:nodetypes="sssasssas" />
    </clipPath>
  </defs>
  <sodipodi:namedview
     id="base"
     pagecolor="#000000"
     bordercolor="#666666"
     borderopacity="1.0"
     inkscape:pageopacity="0"
     inkscape:pageshadow="2"
     inkscape:zoom="1.4"
     inkscape:cx="337.19363"
     inkscape:cy="269.40442"
     inkscape:document-units="px"
     inkscape:current-layer="layer1"
     showgrid="false"
     units="px"
     inkscape:snap-object-midpoints="true"
     inkscape:snap-smooth-nodes="true"
     inkscape:object-nodes="true"
     inkscape:window-width="1920"
     inkscape:window-height="1037"
     inkscape:window-x="0"
     inkscape:window-y="0"
     inkscape:window-maximized="1">
    <inkscape:grid
       type="xygrid"
       id="grid4136"
       empspacing="8" />
  </sodipodi:namedview>
  <metadata
     id="metadata7">
    <rdf:RDF>
      <cc:Work
         rdf:about="">
        <dc:format>image/svg+xml</dc:format>
        <dc:type
           rdf:resource="http://purl.org/dc/dcmitype/StillImage" />
        <dc:title></dc:title>
      </cc:Work>
    </rdf:RDF>
  </metadata>
  <g
     inkscape:label="Layer 1"
     inkscape:groupmode="layer"
     id="layer1"
     transform="translate(0,-540.36216)">
    <g
       id="g4174"
       transform="matrix(0.70710678,0.70710678,-0.70710678,0.70710678,638.09375,52.22974)">
      <path
         sodipodi:nodetypes="sccccccaccsccaccccccs"
         inkscape:connector-curvature="0"
         d="m 256,628.36216 c -4.41828,0 -8,-3.58172 -8,-12.00001 l 0,-75.99999 -16,0 0,75.99999 c 0,7.31372 0.67157,10.47057 1.88604,13.34189 2.39469,5.54598 6.96762,9.8958 12.77208,12.77208 0.34559,0.18185 0.84333,0.12689 1.08988,0.42973 0.31103,0.38205 0.252,1.45629 0.252,1.45629 l 0,48.00004 c 0,4.41828 3.58172,8 8,8 4.41828,0 8,-3.58172 8,-8 l 0,-48.00004 c 0,0 -0.059,-1.07424 0.252,-1.45629 0.24655,-0.30284 0.74429,-0.24788 1.08988,-0.42973 5.33386,-2.81631 10.1977,-6.6536 12.77208,-12.77208 C 279.32843,626.83272 280,623.67587 280,616.36215 l 0,-75.99999 -16,0 0,75.99999 c 0,8.41829 -3.58172,12.00001 -8,12.00001 z"
         style="fill:#009783;fill-opacity:1;fill-rule:evenodd;stroke:none;stroke-width:8;stroke-linecap:round;stroke-linejoin:round;stroke-miterlimit:4;stroke-dasharray:none;stroke-opacity:1"
         id="path4945" />
      <path
         clip-path="url(#clipPath4923)"
         style="fill:none;fill-opacity:1;stroke:#009783;stroke-width:32;stroke-linecap:round;stroke-linejoin:round;stroke-miterlimit:4;stroke-dasharray:none;stroke-opacity:1"
         d="m 368,224 c 0,-44.18278 -50.14411,-80 -112,-80 -61.85589,0 -112,35.81722 -112,80 0,44.18278 33.1936,51.30393 32,80 -1.48685,35.74618 -48,42.98066 -48,96 0,53.01934 57.30755,96 128,96 70.69245,0 128,-42.98066 128,-96 0,-53.01934 -46.51315,-60.25382 -48,-96 -1.1936,-28.69607 32,-35.81722 32,-80 z"
         transform="translate(0,556.36216)"
         id="path4921"
         inkscape:connector-curvature="0"
         sodipodi:nodetypes="sssasssas" />
      <circle
         r="32"
         cy="860.36218"
         cx="256"
         id="path4888"
         style="fill:none;fill-opacity:1;stroke:#009783;stroke-width:8;stroke-linecap:round;stroke-linejoin:round;stroke-miterlimit:4;stroke-dasharray:none;stroke-opacity:1" />
      <path
         inkscape:connector-curvature="0"
         id="path4890"
         d="m 224,956.36216 64,0"
         style="fill:none;fill-rule:evenodd;stroke:#009783;stroke-width:16;stroke-linecap:round;stroke-linejoin:round;stroke-miterlimit:4;stroke-dasharray:none;stroke-opacity:1" />
      <path
         sodipodi:nodetypes="cc"
         inkscape:connector-curvature="0"
         id="path4935"
         d="m 240,956.36216 0,-248"
         style="fill:none;fill-rule:evenodd;stroke:#009783;stroke-width:4;stroke-linecap:round;stroke-linejoin:round;stroke-miterlimit:4;stroke-dasharray:none;stroke-opacity:1" />
      <path
         sodipodi:nodetypes="cc"
         inkscape:connector-curvature="0"
         id="path4937"
         d="m 256,956.36216 0,-248"
         style="fill:none;fill-rule:evenodd;stroke:#009783;stroke-width:4;stroke-linecap:round;stroke-linejoin:round;stroke-miterlimit:4;stroke-dasharray:none;stroke-opacity:1" />
      <path
         sodipodi:nodetypes="cc"
         inkscape:connector-curvature="0"
         id="path4939"
         d="m 272,956.36216 0,-248"
         style="fill:none;fill-rule:evenodd;stroke:#009783;stroke-width:4;stroke-linecap:round;stroke-linejoin:round;stroke-miterlimit:4;stroke-dasharray:none;stroke-opacity:1" />
    </g>
  </g>
</svg>
